<svg width="41" height="32" viewBox="0 0 41 32" fill="none" xmlns="http://www.w3.org/2000/svg">
<path d="M7.16319 14.3264C11.1193 14.3264 14.3264 11.1193 14.3264 7.16319C14.3264 3.20707 11.1193 0 7.16319 0C3.20707 0 0 3.20707 0 7.16319C0 11.1193 3.20707 14.3264 7.16319 14.3264Z" fill="#5BDCB7"/>
<path d="M33.1913 32C37.1474 32 40.3545 28.7929 40.3545 24.8368C40.3545 20.8807 37.1474 17.6736 33.1913 17.6736C29.2352 17.6736 26.0281 20.8807 26.0281 24.8368C26.0281 28.7929 29.2352 32 33.1913 32Z" fill="#5BDCB7"/>
<path d="M27.2001 14.4302C31.1562 14.4302 34.3632 11.1999 34.3632 7.2151C34.3632 3.23031 31.1562 0 27.2001 0C23.2439 0 20.0369 3.23031 20.0369 7.2151C20.0369 11.1999 23.2439 14.4302 27.2001 14.4302Z" fill="#5BDCB7"/>
</svg>
