<svg width="462" height="443" viewBox="0 0 462 443" fill="none" xmlns="http://www.w3.org/2000/svg">
<g clip-path="url(#clip0_2828_1260)">
<path d="M161.498 319.114C180.687 285.877 168.988 243.198 135.367 223.787C101.745 204.375 58.9342 215.583 39.745 248.82C20.5559 282.056 32.2553 324.736 65.8765 344.147C99.4976 363.558 142.309 352.351 161.498 319.114Z" fill="#F5FAF9"/>
<path d="M421.466 193.469C440.655 160.233 428.955 117.553 395.334 98.1423C361.713 78.7311 318.902 89.9387 299.713 123.175C280.523 156.412 292.223 199.091 325.844 218.503C359.465 237.914 402.276 226.706 421.466 193.469Z" fill="#F5FAF9"/>
<path d="M252.72 163.149C271.909 129.913 260.013 87.1193 226.148 67.5675C192.283 48.0156 149.274 59.1094 130.085 92.3459C110.896 125.583 122.793 168.376 156.658 187.928C190.522 207.48 233.531 196.386 252.72 163.149Z" fill="#F5FAF9"/>
</g>
<defs>
<clipPath id="clip0_2828_1260">
<rect width="462" height="443" fill="white"/>
</clipPath>
</defs>
</svg>
