<svg width="92" height="22" viewBox="0 0 92 22" fill="none" xmlns="http://www.w3.org/2000/svg">
<path d="M6.38021 17.3277C5.24576 17.3487 4.12458 17.081 3.12195 16.5499C2.18355 16.0549 1.40101 15.3091 0.861522 14.3956C0.442673 13.7063 0.168975 12.9388 0.0571851 12.1401C-0.0546043 11.3413 -0.00212808 10.5281 0.211402 9.75038C0.424931 8.97261 0.795018 8.24661 1.29899 7.61687C1.80296 6.98713 2.4302 6.46691 3.14231 6.08805C4.14482 5.55619 5.26584 5.28716 6.40057 5.30615C7.25483 5.29535 8.10296 5.45168 8.89722 5.76632C9.44563 5.99349 9.95646 6.30242 10.4123 6.6826C10.4769 6.73686 10.5295 6.80401 10.5667 6.87975C10.604 6.95549 10.625 7.03816 10.6284 7.12247C10.6319 7.20678 10.6177 7.29088 10.5868 7.36941C10.5559 7.44793 10.5089 7.51916 10.449 7.57852L8.96239 9.08121C8.86157 9.18531 8.72662 9.2496 8.58226 9.26231C8.4379 9.27503 8.2938 9.2353 8.17633 9.15044C8.00512 9.02048 7.81751 8.91369 7.61836 8.83281C7.22839 8.68466 6.81359 8.61276 6.39651 8.62104C5.92085 8.61326 5.45157 8.73128 5.03618 8.96312C4.63841 9.18587 4.30998 9.51424 4.08721 9.91196C3.85332 10.3354 3.73531 10.813 3.74509 11.2966C3.73435 11.7906 3.85224 12.279 4.08721 12.7137C4.31021 13.1172 4.64178 13.4501 5.04432 13.6748C5.45808 13.9034 5.92384 14.0212 6.39651 14.0169C6.83036 14.0247 7.26128 13.9443 7.66315 13.7807C7.87133 13.6924 8.06711 13.5775 8.24556 13.4386C8.3624 13.3535 8.50578 13.3129 8.64988 13.3241C8.79398 13.3353 8.92935 13.3976 9.03163 13.4997L10.5101 14.9658C10.5704 15.0252 10.6177 15.0965 10.649 15.1752C10.6802 15.2539 10.6948 15.3383 10.6917 15.4229C10.6887 15.5075 10.6681 15.5906 10.6312 15.6669C10.5943 15.7431 10.5419 15.8108 10.4775 15.8657C10.0092 16.2676 9.48345 16.597 8.91759 16.8431C8.11408 17.1772 7.25032 17.3422 6.38021 17.3277V17.3277Z" fill="white"/>
<path d="M11.6061 16.4602V0.887554C11.6061 0.725546 11.6705 0.57017 11.785 0.455613C11.8996 0.341057 12.055 0.276703 12.217 0.276703H14.6607C14.8227 0.276703 14.9781 0.341057 15.0927 0.455613C15.2073 0.57017 15.2716 0.725546 15.2716 0.887554V16.4643C15.2716 16.6263 15.2073 16.7816 15.0927 16.8962C14.9781 17.0108 14.8227 17.0751 14.6607 17.0751H12.217C12.1364 17.0751 12.0567 17.0592 11.9823 17.0282C11.9079 16.9973 11.8404 16.9519 11.7836 16.8948C11.7268 16.8376 11.6819 16.7698 11.6514 16.6952C11.621 16.6206 11.6056 16.5407 11.6061 16.4602ZM19.6581 17.071C19.4961 17.071 19.3407 17.0067 19.2261 16.8921C19.1115 16.7776 19.0472 16.6222 19.0472 16.4602V10.5146C19.0573 10.2495 19.0122 9.9851 18.9148 9.73833C18.8173 9.49156 18.6696 9.26776 18.481 9.0811C18.2936 8.89785 18.0711 8.75435 17.8268 8.65918C17.5826 8.56401 17.3216 8.51914 17.0596 8.52727C16.7045 8.52095 16.3537 8.60652 16.0414 8.77568C15.7452 8.93761 15.4998 9.17872 15.3327 9.47205C15.2713 9.58135 15.2195 9.6958 15.178 9.81412C15.15 9.89521 15.105 9.96937 15.046 10.0316C14.9869 10.0937 14.9152 10.1425 14.8356 10.1745C14.7561 10.2066 14.6705 10.2212 14.5848 10.2173C14.4992 10.2135 14.4153 10.1912 14.339 10.1521L14.0335 10.0015C13.9214 9.94722 13.8286 9.86005 13.7675 9.75161C13.7063 9.64316 13.6798 9.51863 13.6914 9.39468C13.7307 8.71526 13.9243 8.05374 14.2575 7.46032C14.6281 6.79425 15.1823 6.24865 15.8541 5.8884C16.5665 5.50829 17.3641 5.31623 18.1715 5.33047C18.9948 5.31257 19.8092 5.5046 20.5378 5.8884C21.2019 6.24146 21.7526 6.7751 22.1262 7.42773C22.5145 8.12399 22.7099 8.91124 22.6923 9.70823V16.4602C22.6923 16.6222 22.628 16.7776 22.5134 16.8921C22.3988 17.0067 22.2434 17.071 22.0814 17.071H19.6581Z" fill="white"/>
<path d="M23.7993 16.4609V6.18235C23.7993 6.02035 23.8637 5.86497 23.9783 5.75041C24.0928 5.63586 24.2482 5.5715 24.4103 5.5715H26.8336C26.9956 5.5715 27.151 5.63586 27.2656 5.75041C27.3801 5.86497 27.4445 6.02035 27.4445 6.18235V16.465C27.4445 16.627 27.3801 16.7824 27.2656 16.897C27.151 17.0115 26.9956 17.0759 26.8336 17.0759H24.4103C24.3297 17.0759 24.2499 17.0599 24.1755 17.029C24.1011 16.998 24.0336 16.9527 23.9768 16.8955C23.92 16.8384 23.8751 16.7705 23.8447 16.6959C23.8142 16.6214 23.7988 16.5415 23.7993 16.4609Z" fill="white"/>
<path d="M28.5231 21.3103V6.18155C28.5231 6.01954 28.5875 5.86416 28.7021 5.74961C28.8166 5.63505 28.972 5.5707 29.1341 5.5707H31.5574C31.7194 5.5707 31.8748 5.63505 31.9894 5.74961C32.104 5.86416 32.1683 6.01954 32.1683 6.18155V8.44169C32.1726 8.48367 32.1726 8.52596 32.1683 8.56793L31.6103 11.2028C31.5941 11.282 31.5941 11.3637 31.6103 11.443L32.1195 14.0575C32.1237 14.0967 32.1237 14.1363 32.1195 14.1756V21.3144C32.1195 21.4764 32.0551 21.6317 31.9405 21.7463C31.8259 21.8608 31.6706 21.9252 31.5085 21.9252H29.1341C29.0535 21.9252 28.9737 21.9093 28.8993 21.8783C28.8249 21.8474 28.7574 21.802 28.7006 21.7449C28.6439 21.6877 28.5989 21.6199 28.5685 21.5453C28.538 21.4707 28.5226 21.3909 28.5231 21.3103V21.3103ZM35.1944 17.3072C34.4531 17.3167 33.7188 17.1623 33.044 16.8552C32.4232 16.5791 31.8814 16.1521 31.4678 15.6131C31.0661 15.0886 30.8243 14.4594 30.7713 13.8009V8.95073C30.8255 8.27681 31.0714 7.63245 31.48 7.09375C31.8991 6.54312 32.4437 6.10054 33.0684 5.80282C33.7316 5.48463 34.4589 5.32299 35.1944 5.33042C36.2076 5.3136 37.2048 5.58476 38.0699 6.11233C38.9156 6.6312 39.6073 7.36647 40.0737 8.24215C40.5517 9.19516 40.8006 10.2466 40.8006 11.3127C40.8006 12.3788 40.5517 13.4302 40.0737 14.3832C39.6067 15.2572 38.9168 15.992 38.0739 16.5131C37.2084 17.0444 36.21 17.3198 35.1944 17.3072V17.3072ZM34.5306 14.0167C34.9987 14.0267 35.4607 13.9084 35.8665 13.6747C36.2497 13.4355 36.562 13.098 36.7706 12.6973C36.9955 12.266 37.1129 11.7868 37.1129 11.3005C37.1129 10.8141 36.9955 10.3349 36.7706 9.90367C36.5563 9.51108 36.2433 9.18119 35.8624 8.94666C35.4564 8.71934 34.9956 8.60805 34.5306 8.62495C34.0612 8.61565 33.5981 8.73389 33.1906 8.96704C32.805 9.19573 32.4906 9.52705 32.2824 9.92403C32.0627 10.3569 31.9482 10.8354 31.9482 11.3208C31.9482 11.8062 32.0627 12.2848 32.2824 12.7176C32.491 13.1154 32.8053 13.4479 33.1906 13.6787C33.5975 13.9128 34.0613 14.0298 34.5306 14.0167Z" fill="white"/>
<path d="M45.7937 17.3767C45.1138 17.3773 44.4369 17.2855 43.7817 17.1039C43.1433 16.9353 42.5308 16.6805 41.9612 16.3464C41.6191 16.1496 41.2948 15.9234 40.9918 15.6704C40.9288 15.6149 40.8779 15.5471 40.8421 15.4711C40.8063 15.3951 40.7864 15.3126 40.7838 15.2286C40.7811 15.1447 40.7956 15.0611 40.8265 14.983C40.8574 14.9049 40.904 14.8339 40.9633 14.7745L42.1852 13.5528C42.2922 13.4466 42.4348 13.3841 42.5854 13.3773C42.736 13.3705 42.8837 13.42 42.9998 13.5162C43.7514 14.1306 44.6968 14.4582 45.6675 14.4406C45.9891 14.4573 46.3098 14.3928 46.6001 14.2533C46.7043 14.2054 46.7924 14.1284 46.8538 14.0315C46.9153 13.9347 46.9474 13.8222 46.9463 13.7075C46.9493 13.5742 46.912 13.4431 46.8394 13.3312C46.7667 13.2193 46.6621 13.1319 46.539 13.0804C46.2005 12.9203 45.8472 12.7935 45.4842 12.7017C45.0524 12.5836 44.5963 12.4492 44.1238 12.2945C43.6539 12.1432 43.2018 11.9411 42.7757 11.6918C42.348 11.435 41.9899 11.077 41.7331 10.6492C41.4404 10.0764 41.3019 9.4372 41.3311 8.79457C41.3604 8.15194 41.5565 7.52799 41.9001 6.98411C42.3092 6.41574 42.8653 5.96948 43.5089 5.69319C44.2941 5.36124 45.141 5.20022 45.9933 5.22081C46.918 5.21176 47.8356 5.38472 48.6936 5.72985C49.3026 5.96538 49.857 6.3229 50.3227 6.7805C50.4356 6.89417 50.499 7.0479 50.499 7.20811C50.499 7.36832 50.4356 7.52203 50.3227 7.6357L49.1008 8.89404C48.9897 9.00596 48.8398 9.07091 48.6822 9.07546C48.5245 9.08001 48.3711 9.0238 48.2537 8.91847C48.0111 8.71053 47.7359 8.54406 47.4391 8.42574C47.0232 8.25325 46.578 8.16201 46.1277 8.15695C45.8083 8.13531 45.4889 8.20003 45.2031 8.34428C45.1117 8.39173 45.0348 8.46288 44.9803 8.55029C44.9259 8.6377 44.8959 8.73817 44.8936 8.84112C44.8994 8.96477 44.941 9.08407 45.0133 9.18455C45.0856 9.28503 45.1855 9.36235 45.3009 9.40716C45.6344 9.57028 45.9838 9.69856 46.3435 9.78996C46.7508 9.89991 47.207 10.0302 47.6794 10.1972C48.155 10.35 48.6083 10.565 49.0275 10.8366C49.4545 11.1135 49.8114 11.4857 50.0702 11.9239C50.3625 12.4656 50.5032 13.0762 50.4775 13.6913C50.4925 14.2045 50.3859 14.7141 50.1665 15.1784C49.9471 15.6426 49.621 16.0484 49.2149 16.3627C48.3704 17.0387 47.2301 17.3767 45.7937 17.3767Z" fill="white"/>
<path d="M51.2767 16.4609V6.18235C51.2767 6.02035 51.3411 5.86497 51.4557 5.75041C51.5702 5.63586 51.7256 5.5715 51.8877 5.5715H54.311C54.473 5.5715 54.6284 5.63586 54.743 5.75041C54.8576 5.86497 54.9219 6.02035 54.9219 6.18235V16.465C54.9209 16.6267 54.8562 16.7814 54.7418 16.8958C54.6275 17.0101 54.4727 17.0748 54.311 17.0759H51.8877C51.8071 17.0759 51.7273 17.0599 51.6529 17.029C51.5785 16.998 51.511 16.9527 51.4542 16.8955C51.3975 16.8384 51.3525 16.7705 51.3221 16.6959C51.2916 16.6214 51.2762 16.5415 51.2767 16.4609Z" fill="white"/>
<path d="M25.6549 3.99904C26.7593 3.99904 27.6546 3.10382 27.6546 1.99952C27.6546 0.895215 26.7593 0 25.6549 0C24.5504 0 23.6551 0.895215 23.6551 1.99952C23.6551 3.10382 24.5504 3.99904 25.6549 3.99904Z" fill="white"/>
<path d="M58.0003 17.1892C59.1047 17.1892 60 16.294 60 15.1897C60 14.0854 59.1047 13.1902 58.0003 13.1902C56.8958 13.1902 56.0005 14.0854 56.0005 15.1897C56.0005 16.294 56.8958 17.1892 58.0003 17.1892Z" fill="white"/>
<path d="M53.1324 3.99904C54.2368 3.99904 55.1322 3.10382 55.1322 1.99952C55.1322 0.895215 54.2368 0 53.1324 0C52.028 0 51.1326 0.895215 51.1326 1.99952C51.1326 3.10382 52.028 3.99904 53.1324 3.99904Z" fill="white"/>
<path d="M65.898 17L63.014 10.196H65.324L67.284 15.866H66.276L68.236 10.196H70.504L67.62 16.986L65.898 17ZM74.2015 17.154C73.5202 17.154 72.8949 17.0373 72.3255 16.804C71.7562 16.5613 71.2755 16.216 70.8835 15.768L72.2975 14.354C72.4749 14.6153 72.7315 14.83 73.0675 14.998C73.4129 15.1567 73.7769 15.236 74.1595 15.236C74.5049 15.236 74.8035 15.1753 75.0555 15.054C75.3075 14.9327 75.5035 14.76 75.6435 14.536C75.7929 14.312 75.8675 14.046 75.8675 13.738C75.8675 13.43 75.7929 13.1687 75.6435 12.954C75.5035 12.73 75.2935 12.5573 75.0135 12.436C74.7429 12.3147 74.4162 12.254 74.0335 12.254C73.8562 12.254 73.6695 12.268 73.4735 12.296C73.2869 12.3147 73.1282 12.3473 72.9975 12.394L73.9635 11.176C74.2249 11.1013 74.4722 11.0407 74.7055 10.994C74.9482 10.938 75.1722 10.91 75.3775 10.91C75.8815 10.91 76.3342 11.0313 76.7355 11.274C77.1369 11.5073 77.4542 11.8433 77.6875 12.282C77.9302 12.7113 78.0515 13.2247 78.0515 13.822C78.0515 14.4753 77.8882 15.054 77.5615 15.558C77.2442 16.062 76.7962 16.454 76.2175 16.734C75.6482 17.014 74.9762 17.154 74.2015 17.154ZM72.9975 12.394V11.176L75.4055 8.348L77.8695 8.334L75.3635 11.19L72.9975 12.394ZM71.4995 8.978V7.116H77.8695V8.334L76.1475 8.978H71.4995ZM80.4054 17.154C80.0414 17.154 79.7381 17.028 79.4954 16.776C79.2527 16.524 79.1314 16.2207 79.1314 15.866C79.1314 15.4927 79.2527 15.1847 79.4954 14.942C79.7381 14.69 80.0414 14.564 80.4054 14.564C80.7787 14.564 81.0821 14.69 81.3154 14.942C81.5581 15.1847 81.6794 15.4927 81.6794 15.866C81.6794 16.2207 81.5581 16.524 81.3154 16.776C81.0821 17.028 80.7787 17.154 80.4054 17.154ZM87.0452 17.154C86.2519 17.154 85.5332 16.9393 84.8892 16.51C84.2452 16.0807 83.7366 15.4833 83.3632 14.718C82.9992 13.9433 82.8172 13.052 82.8172 12.044C82.8172 11.0267 82.9992 10.14 83.3632 9.384C83.7272 8.61867 84.2266 8.026 84.8612 7.606C85.4959 7.17667 86.2146 6.962 87.0172 6.962C87.8292 6.962 88.5526 7.17667 89.1872 7.606C89.8219 8.026 90.3212 8.61867 90.6852 9.384C91.0586 10.1493 91.2452 11.0407 91.2452 12.058C91.2452 13.0753 91.0586 13.9667 90.6852 14.732C90.3212 15.4973 89.8219 16.0947 89.1872 16.524C88.5619 16.944 87.8479 17.154 87.0452 17.154ZM87.0312 15.208C87.4419 15.208 87.7966 15.0913 88.0952 14.858C88.3939 14.6153 88.6226 14.2607 88.7812 13.794C88.9492 13.318 89.0332 12.7393 89.0332 12.058C89.0332 11.3673 88.9492 10.7887 88.7812 10.322C88.6226 9.85533 88.3939 9.50533 88.0952 9.272C87.7966 9.02933 87.4372 8.908 87.0172 8.908C86.6159 8.908 86.2612 9.02467 85.9532 9.258C85.6546 9.49133 85.4259 9.84133 85.2672 10.308C85.1086 10.7747 85.0292 11.3533 85.0292 12.044C85.0292 12.7347 85.1086 13.3133 85.2672 13.78C85.4259 14.2467 85.6546 14.6013 85.9532 14.844C86.2612 15.0867 86.6206 15.208 87.0312 15.208Z" fill="white"/>
</svg>
